<?xml version="1.0" encoding="UTF-8"?>
<svg id="_레이어_2" data-name="레이어 2" xmlns="http://www.w3.org/2000/svg" viewBox="0 0 859.44 248.71">
  <defs>
    <style>
      .cls-1 {
        fill: #fff;
        stroke-width: 0px;
      }
    </style>
  </defs>
  <g id="_레이어_1-2" data-name="레이어 1">
    <g>
      <path class="cls-1" d="m305.2,243.63V.36c1.47-.08,2.79-.22,4.11-.22,33.97-.01,67.94,0,101.9,0,33.36,0,62.51,11.12,86.66,34.09,19.02,18.1,30.35,40.57,34.79,66.51,3.88,22.69,1.67,44.74-6.58,66.17-10.88,28.25-30.09,49.1-56.82,63.08-18.54,9.7-38.44,13.66-59.25,13.65-33.34-.02-66.69,0-100.03,0h-4.79Zm53.75-46.72c1.05.14,1.66.28,2.27.28,17.48,0,34.97.29,52.44-.1,20.11-.45,36.49-9.28,48.73-24.87,22.16-28.24,24.93-58.86,7.36-90.13-12.71-22.62-32.31-35.59-59.21-35.52-15.73.04-31.47,0-47.2.02-1.44,0-2.88.13-4.38.2v150.12Z"/>
      <path class="cls-1" d="m537.8.39h58.54c16.92,38.19,33.88,76.47,51.27,115.7,17.19-38.89,33.92-76.75,51.13-115.69,17.11,38.71,33.84,76.56,50.57,114.4l1.13.06c16.85-38.17,33.7-76.33,50.57-114.53h58.44c-36.52,82.72-72.87,165.05-109.62,248.28-17.14-38.71-33.87-76.5-50.6-114.29-.39-.03-.77-.06-1.16-.1-16.71,37.89-33.42,75.78-50.49,114.5-36.76-83.16-73.17-165.5-109.78-248.32Z"/>
      <path class="cls-1" d="m136.97,113.34c-24.48,44.14-48.44,87.34-72.42,130.58H0C45.05,162.66,89.86,81.83,135.23,0c45.23,81.59,90.06,162.47,135.15,243.82h-60.68c-23.99-43.04-48.1-86.29-72.73-130.47Z"/>
    </g>
  </g>
</svg>