<?xml version="1.0" encoding="UTF-8"?>
<svg version="1.1" xmlns="http://www.w3.org/2000/svg" width="688" height="470">
<path d="M0 0 C227.04 0 454.08 0 688 0 C688 155.1 688 310.2 688 470 C460.96 470 233.92 470 0 470 C0 314.9 0 159.8 0 0 Z " fill="#FEFEFE" transform="translate(0,0)"/>
<path d="M0 0 C0.68039018 -0.00320648 1.36078035 -0.00641296 2.06178841 -0.0097166 C4.35837548 -0.01806625 6.65470512 -0.01207512 8.95129681 -0.00622082 C10.60778132 -0.00923925 12.26426444 -0.01312718 13.92074507 -0.01781338 C18.48583985 -0.02814205 23.05085653 -0.02589923 27.61595786 -0.02163279 C32.53427497 -0.01917433 37.45257284 -0.0281688 42.37088299 -0.03567028 C52.01191634 -0.04844436 61.65292188 -0.05020757 71.29396228 -0.04787002 C79.1285116 -0.04608954 86.96305244 -0.04783067 94.79760075 -0.05209446 C95.91115716 -0.05268965 97.02471357 -0.05328484 98.17201411 -0.05389806 C100.43396913 -0.05510977 102.69592414 -0.05632391 104.95787915 -0.05754044 C126.18935574 -0.06842663 147.42081646 -0.06624852 168.65229394 -0.06015559 C188.08644837 -0.05498673 207.52055266 -0.06623916 226.95469717 -0.08525381 C246.89502469 -0.10461458 266.83532848 -0.11289123 286.77566546 -0.10913056 C297.97645637 -0.10721568 309.17720461 -0.10973388 320.37798786 -0.1238451 C329.91442151 -0.13573753 339.45078624 -0.13718795 348.9872208 -0.12505493 C353.85474525 -0.11915089 358.72214352 -0.11810876 363.58965969 -0.13005733 C368.04390302 -0.1408645 372.49791403 -0.13787468 376.95214625 -0.12379565 C378.56520771 -0.12113439 380.17828708 -0.12355981 381.79133103 -0.13153151 C383.9816169 -0.14160623 386.17109035 -0.13324321 388.36134338 -0.12025452 C389.57861943 -0.12030953 390.79589547 -0.12036455 392.05005866 -0.12042123 C396.57153344 0.39024318 399.94052811 1.87446535 403.2202034 5.04191494 C404.77048885 8.02660954 404.74999054 10.29524479 404.75711346 13.65544605 C404.77197041 15.63222088 404.77197041 15.63222088 404.78712749 17.64893055 C404.78288941 19.10777853 404.77833154 20.5666256 404.77348614 22.02547169 C404.77918893 23.56311 404.78615284 25.10074408 404.79428387 26.63837147 C404.81224229 30.81408506 404.81104168 34.98958882 404.80534148 39.16532946 C404.80225295 42.65189556 404.80833847 46.13842117 404.81438023 49.62498152 C404.82843317 57.85144864 404.82685829 66.07781194 404.81547832 74.30428028 C404.80400098 82.78856776 404.81806447 91.272539 404.8448748 99.7567848 C404.86703561 107.04269651 404.87366819 114.32850898 404.86779839 121.614452 C404.86442794 125.96524381 404.8668494 130.31583297 404.88404942 134.66659641 C404.89952222 138.75921857 404.89555958 142.85137271 404.87674427 146.9439764 C404.87305903 148.44436205 404.87616505 149.94478239 404.88663006 151.44513607 C404.8998478 153.49714117 404.88828861 155.54759867 404.87063885 157.59953785 C404.87042956 158.74658381 404.87022028 159.89362976 404.87000465 161.07543468 C404.25140874 165.00402966 402.83016274 167.16275985 400.3694334 170.25447559 C396.72953063 172.68107744 395.04132384 172.50675069 390.70483875 172.5117445 C390.02077223 172.51525057 389.33670571 172.51875665 388.63190991 172.52236897 C386.32283133 172.53172726 384.01400251 172.52674837 381.70491314 172.52190113 C380.03946599 172.52563517 378.37402059 172.53023569 376.70857799 172.53563178 C372.11875332 172.5479077 367.52900128 172.54759593 362.93916392 172.54524302 C357.99427803 172.54483602 353.04941579 172.55586288 348.10454082 172.56535816 C338.41170871 172.58199417 328.71890091 172.58746888 319.02605571 172.58858292 C311.15002145 172.58953214 303.27399524 172.59363612 295.39796352 172.59998417 C273.08465073 172.6176035 250.7713572 172.62682193 228.45803739 172.62532322 C226.65243281 172.62520335 226.65243281 172.62520335 224.81035137 172.62508106 C223.60515106 172.6249993 222.39995075 172.62491754 221.15822922 172.6248333 C201.61992171 172.62402015 182.08169124 172.64316328 162.54340602 172.6713578 C142.49799142 172.70005667 122.45261444 172.71389975 102.40717876 172.71217024 C91.14659967 172.71150531 79.88610136 172.71704255 68.62554073 172.73852634 C59.03892629 172.75669874 49.45242922 172.761118 39.86580504 172.7475075 C34.97203865 172.74095793 30.07849769 172.74093205 25.18475246 172.758214 C20.70768202 172.77386227 16.23101731 172.77116614 11.75395726 172.75364573 C10.13149049 172.75055755 8.50899405 172.7542761 6.88656224 172.76536588 C4.68578256 172.77941642 2.48644007 172.76895849 0.28571033 172.75225353 C-0.93802095 172.75268827 -2.16175224 172.753123 -3.42256629 172.75357091 C-7.24657564 172.15863794 -8.88199725 170.92087705 -11.6305666 168.25447559 C-13.97747145 164.90465941 -13.88624344 161.86943244 -13.89799213 157.84677601 C-13.9065221 156.52748096 -13.91505207 155.20818592 -13.92384052 153.84891224 C-13.92314151 152.38847816 -13.92221846 150.92804417 -13.92109394 149.46761036 C-13.92707878 147.92835126 -13.93388423 146.38909517 -13.94144917 144.84984303 C-13.95911933 140.67010936 -13.96380493 136.49045757 -13.96508074 132.31069016 C-13.96698003 128.82155108 -13.97433779 125.33243107 -13.98142493 121.84329933 C-13.99770979 113.61210281 -14.00259373 105.38095004 -14.00117207 97.14973927 C-13.99997008 88.65749261 -14.02108297 80.16549988 -14.05265939 71.67331749 C-14.07880377 64.38233639 -14.08954016 57.09143832 -14.08826125 49.80041069 C-14.08775114 45.44572456 -14.09346136 41.09126417 -14.11461735 36.73662472 C-14.1339693 32.64156342 -14.13414535 28.54694391 -14.11958408 24.4518671 C-14.11749119 22.94944139 -14.12222553 21.44698825 -14.134305 19.94460964 C-14.14973691 17.89227257 -14.14046577 15.84146286 -14.12504292 13.78915882 C-14.12613245 12.64119107 -14.12722198 11.49322332 -14.12834454 10.31046867 C-13.51837605 6.56570754 -12.25264673 4.94949056 -9.6305666 2.25447559 C-5.99731138 -0.16769455 -4.3270886 0.00308239 0 0 Z " fill="#212121" transform="translate(142.63056659698486,151.7455244064331)"/>
<path d="M0 0 C9.24 0 18.48 0 28 0 C27.67 14.19 27.34 28.38 27 43 C27.66 43 28.32 43 29 43 C29.27021973 42.13737549 29.54043945 41.27475098 29.81884766 40.38598633 C30.98015441 37.05689097 32.35291063 33.99139838 33.8984375 30.82421875 C34.46046875 29.66599609 35.0225 28.50777344 35.6015625 27.31445312 C36.19248017 26.10535721 36.78362735 24.89637345 37.375 23.6875 C41.03630142 16.17284229 44.66426444 8.66561892 48 1 C53.28 1 58.56 1 64 1 C63.17700837 5.11495814 62.34396741 7.71910299 60.55859375 11.39453125 C60.06061279 12.42529785 59.56263184 13.45606445 59.04956055 14.51806641 C58.51758057 15.60522949 57.98560059 16.69239258 57.4375 17.8125 C56.89971924 18.92802246 56.36193848 20.04354492 55.80786133 21.19287109 C53.40745967 26.15415493 50.98038865 31.09156869 48.390625 35.95703125 C47.82516968 37.03150513 47.82516968 37.03150513 47.24829102 38.12768555 C46.56446367 39.4152325 45.86545097 40.6948838 45.14819336 41.96411133 C42.84374118 46.31124365 42.87457267 49.37005578 44 54 C45.30879261 58.08809081 46.81458636 62.09477097 48.33203125 66.109375 C48.76505051 67.27196838 49.19806976 68.43456177 49.64421082 69.63238525 C50.79338005 72.71410791 51.94852344 75.79349915 53.10675049 78.87182617 C54.27192911 81.97265437 55.42955191 85.07629904 56.58789062 88.1796875 C57.89736061 91.68736788 59.20772958 95.19467987 60.52314758 98.70013428 C61.68584241 101.79870664 62.84405346 104.89890445 64 108 C64.39053558 109.04321411 64.78107117 110.08642822 65.18344116 111.16125488 C65.73398666 112.64812805 65.73398666 112.64812805 66.2956543 114.16503906 C66.62421921 115.04871155 66.95278412 115.93238403 67.29130554 116.84283447 C68 119 68 119 68 121 C58.76 121 49.52 121 40 121 C37.63626886 108.83116188 35.37581766 96.65008216 33.25 84.4375 C33.02739502 83.17139893 32.80479004 81.90529785 32.57543945 80.60083008 C32.37007568 79.41126709 32.16471191 78.2217041 31.953125 76.99609375 C31.76911133 75.93575928 31.58509766 74.8754248 31.39550781 73.78295898 C31 71 31 71 31 67 C29.68 67 28.36 67 27 67 C27.04543945 68.16680298 27.04543945 68.16680298 27.09179688 69.35717773 C27.76204966 86.91908967 28.10340698 104.42081382 28 122 C18.76 122 9.52 122 0 122 C-1.36804249 115.84380878 -2.25081506 111.69896306 -2.25878906 105.6965332 C-2.26224838 105.02409167 -2.2657077 104.35165014 -2.26927185 103.6588316 C-2.27788573 101.45604431 -2.27213076 99.25357169 -2.265625 97.05078125 C-2.26765695 95.48364163 -2.27033625 93.91650273 -2.27362061 92.34936523 C-2.27897972 88.19156374 -2.270169 84.03391329 -2.25714111 79.87613297 C-2.24999991 77.31246748 -2.24676449 74.74882434 -2.24462891 72.18515015 C-2.21960777 48.07512973 -1.85377262 24.04938937 0 0 Z " fill="#FBFBFB" transform="translate(267,177)"/>
<path d="M0 0 C2.16271358 4.11245406 2.2331341 7.67420655 2.1953125 12.26953125 C2.1924826 12.95053391 2.18965271 13.63153656 2.18673706 14.33317566 C2.17560525 16.49313455 2.15051457 18.65266794 2.125 20.8125 C2.11496111 22.28319711 2.10583685 23.75390076 2.09765625 25.22460938 C2.0773963 28.81669925 2.03823667 32.40787732 2 36 C-6.25 36 -14.5 36 -23 36 C-23.495 28.575 -23.495 28.575 -24 21 C-30.6 21 -37.2 21 -44 21 C-43.67 28.26 -43.34 35.52 -43 43 C-40.62361328 43.07347656 -40.62361328 43.07347656 -38.19921875 43.1484375 C-25.05153779 43.59288639 -12.05802042 44.39692956 1 46 C2.7875354 58.0977842 3.2207362 70.10450755 3.25 82.3125 C3.25499512 83.03226013 3.25999023 83.75202026 3.26513672 84.49359131 C3.28888263 88.66919116 3.23565676 92.83189077 3.07055664 97.00445557 C3.00055364 98.98434144 2.97957145 100.96576127 2.95898438 102.94677734 C2.43797083 111.57861255 2.43797083 111.57861255 -1.20166016 115.17626953 C-8.95475585 119.67579845 -17.16224969 119.90009254 -25.88232422 119.72729492 C-28.13050098 119.68740239 -30.37280997 119.70672301 -32.62109375 119.73242188 C-39.78912033 119.73568375 -46.91736337 119.60184605 -53.23461914 115.83129883 C-56.94997122 111.97721835 -56.8379714 107.11388891 -57 102 C-57.07033447 100.2984375 -57.07033447 100.2984375 -57.14208984 98.5625 C-57.23109373 95.03774955 -57.22442687 91.52554454 -57.1875 88 C-57.18685547 86.79988281 -57.18621094 85.59976563 -57.18554688 84.36328125 C-57.13732404 74.79372727 -57.13732404 74.79372727 -56 71 C-53.41633755 71.14120016 -50.83317115 71.28778333 -48.25 71.4375 C-47.52039063 71.47681641 -46.79078125 71.51613281 -46.0390625 71.55664062 C-42.53133638 71.76391535 -39.42397562 72.1440061 -36 73 C-36 80.59 -36 88.18 -36 96 C-31.05 96 -26.1 96 -21 96 C-21 85.44 -21 74.88 -21 64 C-28.44763121 63.7910262 -28.44763121 63.7910262 -35.89599609 63.61206055 C-42.69104568 63.37510438 -48.60462248 62.31834674 -55 60 C-55.17068864 55.60431345 -55.33579049 51.20843299 -55.5 46.8125 C-55.57154297 44.97268555 -55.57154297 44.97268555 -55.64453125 43.09570312 C-56.06447176 31.72731357 -56.43878875 20.49365754 -55 9.1875 C-54.90460938 8.38763672 -54.80921875 7.58777344 -54.7109375 6.76367188 C-54.4807519 4.84162213 -54.24143097 2.9206696 -54 1 C-39.48272405 -5.70765225 -14.23542497 -9.13265315 0 0 Z " fill="#FAFAFA" transform="translate(394,180)"/>
<path d="M0 0 C5.15542241 -0.05009754 10.31069767 -0.08604323 15.46630859 -0.10986328 C17.21372959 -0.11981187 18.96113444 -0.13337557 20.70849609 -0.15087891 C49.0364404 -0.42716981 49.0364404 -0.42716981 55.75 3.8125 C62.95602537 14.02103593 60.26957472 31.05855593 60.05322266 42.94384766 C60.02048753 44.82356452 59.99720777 46.70350902 59.98974609 48.58349609 C59.95901423 56.21308502 59.78226395 63.55318939 55.24609375 70.00390625 C46.84610523 77.46893953 35.57300838 77.27174795 25 77 C25.00785522 78.63412842 25.00785522 78.63412842 25.01586914 80.30126953 C25.03403023 84.36034314 25.04547251 88.41941318 25.05493164 92.47851562 C25.05994651 94.23210251 25.06676002 95.98568524 25.07543945 97.73925781 C25.08763 100.2662865 25.09325688 102.79325968 25.09765625 105.3203125 C25.10281754 106.09867462 25.10797882 106.87703674 25.11329651 107.6789856 C25.1137272 111.9003949 24.8358664 115.84091388 24 120 C19.55303771 120.85806623 15.33916171 121.13470345 10.8125 121.125 C9.60207031 121.12757813 8.39164063 121.13015625 7.14453125 121.1328125 C4 121 4 121 1 120 C0.96241577 118.64636353 0.96241577 118.64636353 0.92407227 117.26538086 C0.82845373 113.89011166 0.72925173 110.51498606 0.62768555 107.13989258 C0.58460067 105.6842047 0.54290925 104.22847483 0.50268555 102.77270508 C0.44433589 100.66995639 0.38083484 98.56741394 0.31640625 96.46484375 C0.27974854 95.202771 0.24309082 93.94069824 0.20532227 92.64038086 C0.06297989 89.0557155 0.06297989 89.0557155 -0.50474548 85.76568604 C-1.01884373 81.856721 -1.14080174 78.04157477 -1.12939453 74.10864258 C-1.13114685 73.35326706 -1.13289917 72.59789154 -1.13470459 71.81962585 C-1.13907476 69.34457035 -1.13620315 66.86958737 -1.1328125 64.39453125 C-1.13348672 62.66533901 -1.13445773 60.93614687 -1.13571167 59.20695496 C-1.13718191 55.59344576 -1.13505499 51.97996138 -1.13037109 48.36645508 C-1.12466136 43.73616733 -1.12796494 39.10593739 -1.13394356 34.47565174 C-1.13755643 30.90947534 -1.13640745 27.34331266 -1.13381577 23.77713585 C-1.13314918 22.06950562 -1.13396557 20.36187414 -1.13629532 18.65424538 C-1.13883514 16.27052122 -1.13496303 13.88689099 -1.12939453 11.50317383 C-1.13141876 10.79919464 -1.13344299 10.09521545 -1.13552856 9.36990356 C-1.1213828 6.10068996 -1.00462607 3.12684332 0 0 Z " fill="#FCFCFC" transform="translate(154,177)"/>
<path d="M0 0 C18.15 0 36.3 0 55 0 C55 10.23 55 20.46 55 31 C44.77 31 34.54 31 24 31 C24 36.28 24 41.56 24 47 C32.91 47 41.82 47 51 47 C51 59 51 59 50 61 C41.38738189 62.83689642 31.51182624 62 23 62 C23 73.88 23 85.76 23 98 C32.9 98 42.8 98 53 98 C53 105.59 53 113.18 53 121 C36.17 121 19.34 121 2 121 C-0.29764095 99.17241101 -0.29764095 99.17241101 -0.22705078 90.47973633 C-0.22734283 89.48209763 -0.22763489 88.48445892 -0.22793579 87.45658875 C-0.22657282 84.24830557 -0.21115944 81.04027241 -0.1953125 77.83203125 C-0.19157151 75.57232286 -0.18872969 73.31261283 -0.18673706 71.05290222 C-0.17918599 65.17257015 -0.1596132 59.29234057 -0.1373291 53.41204834 C-0.11303983 46.3206621 -0.10404901 39.22924114 -0.09242249 32.13782501 C-0.07318193 21.4251459 -0.03480029 10.71269064 0 0 Z " fill="#FBFBFB" transform="translate(405,177)"/>
<path d="M0 0 C9.24 0 18.48 0 28 0 C28 34.98 28 69.96 28 106 C30.475 105.505 30.475 105.505 33 105 C34.54665547 104.92404744 36.09604781 104.89180985 37.64453125 104.90234375 C38.90620117 104.90717773 38.90620117 104.90717773 40.19335938 104.91210938 C41.05767578 104.92048828 41.92199219 104.92886719 42.8125 104.9375 C43.69615234 104.94201172 44.57980469 104.94652344 45.49023438 104.95117188 C47.66018559 104.96290134 49.83010172 104.98083505 52 105 C52 109.95 52 114.9 52 120 C44.12401603 122.25028113 44.12401603 122.25028113 40.09033203 122.24291992 C39.1931546 122.24599655 38.29597717 122.24907318 37.37161255 122.25224304 C35.95403152 122.24146477 35.95403152 122.24146477 34.5078125 122.23046875 C33.52126678 122.23001053 32.53472107 122.22955231 31.51828003 122.2290802 C29.4457681 122.22607257 27.37325814 122.21823121 25.30078125 122.20581055 C22.11450287 122.18743948 18.92851356 122.18530185 15.7421875 122.18554688 C13.72655997 122.18063549 11.71093441 122.17480884 9.6953125 122.16796875 C8.7381131 122.16685593 7.7809137 122.1657431 6.79470825 122.16459656 C5.47731155 122.15502678 5.47731155 122.15502678 4.13330078 122.14526367 C3.35721466 122.14145187 2.58112854 122.13764008 1.78152466 122.13371277 C0 122 0 122 -1 121 C-1.1234055 119.34326724 -1.17792239 117.68136018 -1.20532227 116.02026367 C-1.22525238 114.94507477 -1.2451825 113.86988586 -1.26571655 112.76211548 C-1.28244415 111.57604706 -1.29917175 110.38997864 -1.31640625 109.16796875 C-1.3373233 107.93291595 -1.35824036 106.69786316 -1.37979126 105.42538452 C-1.43511117 102.04845427 -1.48559672 98.67153131 -1.5328331 95.29448318 C-1.56240595 93.19417955 -1.59335915 91.0939003 -1.62466431 88.99362183 C-1.90091539 70.30974742 -2.11950118 51.62456316 -2.17623901 32.93862915 C-2.18371245 30.69803591 -2.19436441 28.4574509 -2.20828247 26.21688843 C-2.22600648 23.10414949 -2.23030833 19.99168936 -2.23046875 16.87890625 C-2.23760895 15.97433685 -2.24474915 15.06976746 -2.25210571 14.13778687 C-2.2490744 13.29511261 -2.24604309 12.45243835 -2.24291992 11.58422852 C-2.24434494 10.86300308 -2.24576996 10.14177765 -2.24723816 9.3986969 C-2 7 -2 7 0 0 Z " fill="#F9F9F9" transform="translate(471,177)"/>
<path d="M0 0 C1.62063188 4.99081098 2.2488239 9.17508939 2.24291992 14.4753418 C2.24481827 15.18906952 2.24671661 15.90279724 2.24867249 16.63815308 C2.25236458 18.99195491 2.24166756 21.34544429 2.23046875 23.69921875 C2.2292721 25.37417058 2.22882481 27.04912308 2.2290802 28.72407532 C2.22751607 32.25041878 2.21925447 35.77666068 2.20581055 39.30297852 C2.18919677 43.70493347 2.18506976 48.10677421 2.18563652 52.50875664 C2.1848333 75.68786896 1.7652469 98.83388926 1 122 C-7.91 122 -16.82 122 -26 122 C-26.02258771 107.10948769 -26.04100293 92.21898418 -26.05181217 77.32845879 C-26.05696485 70.41427878 -26.06398797 63.50011018 -26.07543945 56.5859375 C-26.08648442 49.91402148 -26.09228375 43.24211978 -26.09487724 36.57019424 C-26.09672563 34.02409809 -26.100335 31.47800258 -26.10573006 28.93191147 C-26.11298347 25.36719101 -26.11398911 21.80251962 -26.11352539 18.23779297 C-26.11712067 17.18402969 -26.12071594 16.13026642 -26.12442017 15.04457092 C-26.11766425 10.24853822 -26.01138546 5.71449711 -25 1 C-16.64380043 0.24524649 -8.39004715 -0.13605482 0 0 Z " fill="#FCFCFC" transform="translate(250,177)"/>
<path d="M0 0 C2.20805524 -0.0544452 4.41650554 -0.09299283 6.625 -0.125 C7.85476562 -0.14820313 9.08453125 -0.17140625 10.3515625 -0.1953125 C14.85473748 0.04575682 18.60175639 0.5535411 21.8125 3.875 C24.28512808 8.29970287 24.16298401 12.5465293 24.1875 17.5625 C24.19974609 18.23474609 24.21199219 18.90699219 24.22460938 19.59960938 C24.23562975 23.29878237 24.10685378 24.83971933 22 28 C19.75341797 28.34057617 19.75341797 28.34057617 16.9921875 28.29296875 C16.00605469 28.28330078 15.01992187 28.27363281 14.00390625 28.26367188 C12.97136719 28.23853516 11.93882812 28.21339844 10.875 28.1875 C9.31458984 28.16719727 9.31458984 28.16719727 7.72265625 28.14648438 C5.14792373 28.11105228 2.5742167 28.06165221 0 28 C-0.76327482 24.60543565 -1.12814848 21.46530859 -1.1328125 17.98828125 C-1.13410156 17.06595703 -1.13539063 16.14363281 -1.13671875 15.19335938 C-1.13285156 14.24267578 -1.12898437 13.29199219 -1.125 12.3125 C-1.12886719 11.35021484 -1.13273438 10.38792969 -1.13671875 9.39648438 C-1.13542969 8.47802734 -1.13414062 7.55957031 -1.1328125 6.61328125 C-1.13168457 5.77579346 -1.13055664 4.93830566 -1.12939453 4.07543945 C-1 2 -1 2 0 0 Z " fill="#1A1A1A" transform="translate(169,202)"/>
</svg>
